<?xml version="1.0" standalone="no"?>
<!DOCTYPE svg PUBLIC "-//W3C//DTD SVG 20010904//EN"
 "http://www.w3.org/TR/2001/REC-SVG-20010904/DTD/svg10.dtd">
<svg version="1.0" xmlns="http://www.w3.org/2000/svg"
 width="450.000000pt" height="450.000000pt" viewBox="0 0 450.000000 450.000000"
 preserveAspectRatio="xMidYMid meet">
<metadata>
Created by potrace 1.10, written by Peter Selinger 2001-2011
</metadata>
<g transform="translate(0.000000,450.000000) scale(0.100000,-0.100000)"
fill="#000000" stroke="none">
<path d="M725 3913 c-44 -41 -133 -115 -197 -164 -77 -59 -120 -98 -124 -114
-3 -14 -13 -25 -21 -25 -8 0 -53 -38 -99 -85 -46 -47 -82 -85 -80 -85 2 0 42
20 89 45 250 133 498 171 732 111 124 -31 249 -80 323 -126 27 -16 52 -30 55
-30 4 0 -31 38 -77 85 -46 47 -91 85 -99 85 -9 0 -17 10 -19 22 -2 14 -45 55
-123 115 -66 52 -156 127 -200 167 l-80 73 -80 -74z m295 -153 c71 -55 68 -53
123 -94 20 -16 37 -34 37 -41 0 -8 11 -22 25 -33 14 -11 25 -22 25 -24 0 -2
-44 11 -97 28 -53 18 -140 40 -192 50 -53 9 -98 18 -100 20 -9 8 23 34 43 34
43 0 63 53 30 81 -8 7 -24 29 -34 48 -10 20 -32 49 -48 65 l-31 28 -26 -28
c-15 -16 -35 -45 -45 -65 -10 -19 -26 -41 -34 -48 -33 -28 -13 -81 30 -81 20
0 52 -26 43 -34 -2 -2 -47 -11 -99 -20 -52 -9 -142 -33 -199 -52 -56 -19 -105
-33 -107 -31 -3 2 9 10 26 17 17 7 33 22 36 36 3 13 37 45 77 76 89 65 232
186 271 226 l29 31 76 -69 c42 -38 105 -92 141 -120z m-165 37 c-3 -17 -1 -26
5 -22 14 9 50 -13 50 -31 0 -9 -8 -14 -17 -13 -43 4 -55 -2 -69 -36 -15 -36
-34 -39 -34 -6 0 26 -20 41 -57 41 -18 0 -33 4 -33 9 0 17 32 42 47 37 11 -4
13 -1 8 15 -5 14 2 33 21 60 l27 40 29 -33 c21 -25 27 -40 23 -61z"/>
<path d="M2214 3953 l-27 -36 26 -23 26 -22 -29 -40 c-36 -50 -67 -72 -101
-72 -20 0 -30 -7 -39 -29 -23 -57 -55 -71 -111 -47 -11 5 -19 -3 -30 -26 -11
-25 -32 -42 -90 -73 -102 -54 -129 -73 -129 -91 0 -11 4 -12 19 -4 28 14 234
46 391 60 114 10 161 9 302 -4 172 -17 319 -41 350 -57 10 -5 18 -7 18 -4 0
25 -33 52 -106 86 -80 39 -124 76 -124 105 0 16 -16 19 -25 4 -20 -32 -99 10
-110 59 -5 23 -10 27 -30 24 -33 -7 -77 22 -108 69 l-26 40 26 22 26 23 -29
36 c-16 21 -32 37 -35 37 -4 0 -19 -16 -35 -37z m48 -45 c-8 -8 -15 -9 -22 -2
-6 6 -8 19 -4 28 6 16 8 16 22 2 13 -12 14 -18 4 -28z m-2 -86 c0 -20 75 -82
107 -88 23 -4 37 -14 43 -29 13 -33 63 -65 103 -65 21 0 37 -6 40 -15 4 -8 25
-28 49 -46 l43 -32 -40 7 c-253 40 -441 43 -648 7 -59 -10 -107 -15 -107 -12
0 4 16 15 36 26 20 10 44 29 54 42 12 16 28 23 52 23 40 0 73 21 93 61 10 18
23 29 36 29 31 0 72 28 98 66 22 32 41 44 41 26z"/>
<path d="M3670 3934 c0 -9 -16 -38 -36 -65 -22 -31 -34 -57 -31 -69 4 -16 0
-18 -28 -13 -42 7 -52 -10 -19 -32 l26 -17 -24 -25 c-37 -40 -92 -63 -178 -74
-94 -11 -148 -29 -211 -70 -44 -28 -86 -75 -76 -85 2 -2 32 8 68 22 99 40 354
81 509 82 163 0 429 -41 531 -82 35 -14 64 -24 66 -22 10 9 -15 41 -54 71 -59
45 -138 74 -236 86 -83 10 -126 27 -164 62 -28 25 -29 43 -3 57 29 16 13 33
-25 27 -29 -5 -31 -3 -28 17 3 13 -7 36 -26 60 -18 22 -34 50 -37 63 -7 26
-24 31 -24 7z m34 -96 c21 -30 20 -51 -3 -79 -15 -19 -21 -21 -34 -11 -24 20
-30 61 -12 88 19 30 30 30 49 2z m-62 -103 c11 -14 28 -25 38 -25 10 0 27 11
38 25 24 30 42 32 42 6 0 -50 115 -131 186 -131 43 0 144 -21 144 -30 0 -4
-18 -4 -40 1 -64 15 -277 37 -366 38 -78 2 -297 -21 -376 -38 -21 -5 -38 -5
-38 -1 0 8 109 30 151 30 65 0 179 84 179 131 0 26 18 24 42 -6z"/>
<path d="M1850 3504 c-115 -21 -124 -24 -112 -36 15 -15 255 -33 335 -24 66 7
94 26 40 26 -16 0 -55 12 -88 25 -67 28 -71 28 -175 9z m125 -24 c7 -12 -12
-12 -40 0 -18 8 -17 9 7 9 15 1 30 -3 33 -9z"/>
<path d="M2475 3498 c-22 -11 -57 -23 -77 -26 -91 -12 -5 -32 136 -32 82 0
210 15 228 27 18 10 -16 22 -113 38 -115 18 -124 18 -174 -7z m115 -18 c0 -5
-16 -10 -35 -10 -19 0 -35 5 -35 10 0 6 16 10 35 10 19 0 35 -4 35 -10z"/>
<path d="M2172 2628 c-15 -15 -16 -50 -1 -65 15 -15 39 -5 39 14 0 12 -3 13
-14 4 -9 -7 -17 -8 -20 -2 -9 14 4 41 20 41 16 0 44 -38 44 -61 0 -27 -39 -69
-65 -69 -28 0 -49 22 -34 37 13 13 8 53 -6 56 -5 1 -14 -12 -19 -30 -7 -23
-17 -33 -37 -37 -15 -3 -38 -19 -50 -35 l-22 -30 -18 22 -18 22 -1 -26 c0 -14
7 -34 15 -45 23 -30 18 -58 -14 -82 -29 -21 -30 -21 -36 -2 -14 43 -52 44
-126 3 -4 -2 -9 6 -12 18 -3 12 -11 19 -19 16 -13 -4 -14 -39 -1 -67 4 -8 7
-47 7 -87 l1 -72 -22 27 c-18 22 -25 25 -40 16 -24 -15 -28 -47 -8 -64 13 -11
19 -11 31 2 11 11 12 18 5 22 -6 4 -11 2 -11 -3 0 -6 -4 -11 -10 -11 -5 0 -10
9 -10 20 0 11 7 20 15 20 37 0 49 -104 16 -134 -27 -24 -56 -17 -56 13 0 14 6
26 14 29 10 3 11 -2 6 -18 -5 -15 -4 -20 4 -16 14 9 15 43 1 51 -16 10 -52
-34 -45 -55 4 -11 -1 -30 -9 -42 -20 -28 -22 -80 -3 -72 9 3 12 -6 9 -34 -3
-34 1 -42 30 -67 34 -29 123 -75 146 -75 28 0 8 17 -52 43 -35 16 -76 42 -91
57 l-28 29 27 45 c59 100 214 165 442 185 301 26 586 -57 659 -193 l19 -35
-29 -31 c-17 -17 -59 -45 -95 -63 -39 -18 -58 -33 -48 -35 20 -4 104 38 147
74 28 24 32 32 29 66 -3 28 0 37 9 34 19 -8 17 44 -3 72 -8 12 -13 31 -9 42 7
21 -29 65 -45 55 -14 -8 -13 -42 1 -51 8 -4 9 1 4 16 -5 16 -4 21 6 18 23 -8
17 -53 -7 -56 -37 -5 -51 26 -62 145 -10 96 -9 116 4 143 16 32 13 60 -7 60
-6 0 -13 -9 -16 -20 -6 -24 -7 -24 -36 -6 -45 29 -65 29 -91 1 -24 -26 -25
-26 -50 -10 -29 19 -34 56 -11 75 16 14 21 70 6 70 -5 0 -13 -9 -16 -20 -6
-18 -9 -17 -39 15 -19 19 -41 35 -50 35 -9 0 -22 16 -31 36 -8 19 -19 33 -25
29 -13 -8 -13 -48 0 -61 8 -8 6 -15 -5 -24 -41 -34 -109 36 -86 86 6 14 18 27
27 31 21 8 38 -11 30 -34 -6 -15 -9 -15 -16 -3 -5 8 -12 11 -16 7 -4 -3 -1
-13 6 -22 16 -20 40 -2 40 30 0 47 -61 58 -75 14 -9 -26 -20 -24 -33 6 -12 27
-40 33 -60 13z m-40 -90 c-7 -7 -12 -8 -12 -2 0 6 3 14 7 17 3 4 9 5 12 2 2
-3 -1 -11 -7 -17z m248 1 c0 -6 -4 -7 -10 -4 -5 3 -10 11 -10 16 0 6 5 7 10 4
6 -3 10 -11 10 -16z m-247 -51 c24 -18 32 -71 14 -86 -17 -15 -47 -6 -47 14 0
24 4 29 19 26 13 -3 13 -1 1 13 -12 14 -15 14 -28 1 -19 -19 -7 -66 19 -73 15
-4 18 -11 13 -27 -9 -30 -12 -31 -32 -13 -10 10 -29 17 -42 17 -22 0 -22 1 -7
18 19 20 22 42 8 42 -6 0 -13 -4 -16 -10 -16 -26 -23 -6 -10 28 18 43 40 62
70 62 12 0 29 -6 38 -12z m89 -15 c-6 -10 -20 -27 -31 -37 -21 -19 -21 -19
-21 5 0 16 10 30 28 40 32 19 37 17 24 -8z m38 -33 c0 -33 -4 -60 -10 -60 -6
0 -10 27 -10 60 0 33 4 60 10 60 6 0 10 -27 10 -60z m70 0 c-1 -25 -1 -25 -30
8 -38 41 -38 56 0 34 21 -12 30 -25 30 -42z m128 33 c35 -50 39 -96 5 -62 -19
19 -26 -11 -7 -32 16 -18 16 -19 -6 -19 -13 0 -32 -7 -42 -17 -20 -18 -23 -17
-32 13 -5 16 -2 23 13 27 25 6 38 52 21 72 -13 15 -30 12 -30 -6 0 -6 4 -8 9
-4 16 9 23 -13 11 -35 -13 -24 -33 -26 -50 -5 -14 17 3 80 23 89 33 13 66 5
85 -21z m53 -36 c-10 -9 -11 -8 -5 6 3 10 9 15 12 12 3 -3 0 -11 -7 -18z
m-305 -61 c-52 -43 -53 -100 -3 -155 l22 -25 -35 22 c-19 11 -43 32 -54 45
-24 32 -12 70 41 131 35 41 39 43 46 23 6 -16 2 -26 -17 -41z m155 -31 c10
-16 19 -37 19 -46 0 -23 -32 -61 -71 -83 l-34 -20 28 33 c15 18 30 43 33 56 7
26 -18 80 -45 96 -12 8 -16 20 -13 37 l5 25 29 -34 c16 -19 38 -47 49 -64z
m-123 -4 c2 -13 -2 -28 -8 -35 -9 -8 -11 -6 -5 12 7 25 -12 32 -21 7 -8 -19
15 -47 30 -37 6 4 22 7 36 7 18 0 25 5 25 19 0 11 -6 21 -14 24 -10 3 -11 -2
-6 -18 5 -15 4 -20 -4 -16 -15 9 -14 53 1 62 16 10 48 -33 48 -67 0 -17 -12
-42 -30 -62 -16 -19 -30 -40 -30 -46 0 -6 -4 -11 -10 -11 -5 0 -10 5 -10 11 0
6 -13 27 -30 46 -34 38 -38 72 -14 109 20 29 38 27 42 -5z m-445 -1 c3 -11 1
-20 -4 -20 -5 0 -9 9 -9 20 0 11 2 20 4 20 2 0 6 -9 9 -20z m123 -5 c14 -21
15 -31 6 -50 -14 -30 -28 -32 -42 -4 -9 15 -8 24 1 35 6 8 9 18 5 21 -12 12
-27 -20 -23 -49 2 -19 -2 -29 -13 -33 -26 -8 -41 -50 -30 -80 12 -31 32 -40
59 -25 28 14 29 60 2 60 -23 0 -36 -16 -21 -25 5 -3 10 -1 10 6 0 10 3 10 12
1 10 -10 10 -15 -2 -22 -24 -16 -45 -7 -48 22 -4 36 36 65 67 48 26 -13 37
-54 23 -85 -9 -20 -54 -50 -123 -83 -10 -4 1 189 13 226 9 30 46 61 75 62 7 0
20 -11 29 -25z m741 6 c26 -16 33 -28 37 -63 10 -86 15 -209 8 -206 -62 28
-115 64 -124 83 -25 55 21 111 68 80 27 -18 33 -62 9 -71 -18 -7 -47 14 -39
28 4 6 10 5 15 -3 4 -7 11 -10 14 -7 11 11 -5 28 -26 28 -26 0 -26 -46 0 -60
29 -15 39 -13 57 15 14 21 14 30 4 55 -7 16 -20 32 -29 35 -12 4 -16 13 -14
33 2 15 -1 34 -6 42 -15 22 -24 5 -10 -18 10 -17 10 -23 0 -36 -19 -23 -30
-20 -42 10 -7 20 -6 32 6 50 19 29 31 30 72 5z m-588 -4 c33 -17 43 -49 24
-76 -21 -31 -67 -25 -71 8 -3 18 0 22 12 18 10 -4 16 -1 16 8 0 19 -24 19 -40
0 -21 -25 -4 -65 30 -72 17 -3 30 -10 30 -16 0 -6 7 -18 15 -28 15 -15 13 -16
-27 -9 -71 14 -76 17 -74 60 0 21 -2 42 -6 45 -12 13 -28 -6 -28 -33 0 -20 -3
-23 -12 -14 -19 19 4 74 41 99 38 26 56 28 90 10z m451 -9 c39 -27 57 -70 42
-101 -10 -20 -11 -20 -11 10 -1 17 -6 35 -12 39 -17 10 -30 -18 -24 -52 6 -35
0 -40 -73 -54 -40 -7 -42 -6 -27 9 8 10 15 23 15 29 0 7 11 12 25 12 31 0 55
42 38 68 -14 23 -43 28 -43 8 0 -10 6 -13 16 -9 12 4 15 0 12 -18 -3 -27 -40
-38 -64 -19 -22 19 -17 66 8 84 31 22 59 20 98 -6z m200 7 c0 -8 -4 -15 -10
-15 -5 0 -7 7 -4 15 4 8 8 15 10 15 2 0 4 -7 4 -15z m-753 -107 c-3 -7 -5 -2
-5 12 0 14 2 19 5 13 2 -7 2 -19 0 -25z m570 -5 c-3 -10 -5 -4 -5 12 0 17 2
24 5 18 2 -7 2 -21 0 -30z m-145 15 c-14 -14 -16 -38 -2 -38 5 0 7 7 4 15 -4
8 -1 15 4 15 19 0 22 -17 7 -36 -15 -19 -15 -19 -30 0 -15 20 -5 56 17 56 9 0
9 -3 0 -12z m-259 -12 c7 -19 -17 -51 -31 -42 -16 10 -15 43 1 49 20 9 25 8
30 -7z m39 -52 c-20 -6 -38 -10 -39 -9 -2 1 3 13 9 27 12 24 13 24 40 9 l27
-16 -37 -11z m192 -2 c-1 -2 -17 -1 -35 3 l-32 7 23 18 c23 18 24 18 35 -3 7
-12 10 -24 9 -25z m-374 -4 l34 -11 -44 -13 c-24 -7 -45 -12 -47 -11 -5 6 10
47 17 47 4 0 22 -5 40 -12z m570 3 c0 -5 3 -16 6 -24 4 -12 -2 -13 -42 -4
l-47 11 29 13 c35 15 54 16 54 4z m-872 -192 c-12 -16 -24 -26 -26 -20 -5 16
17 51 34 51 11 0 10 -7 -8 -31z m1142 10 c19 -35 6 -42 -18 -10 -18 24 -19 31
-8 31 9 0 20 -9 26 -21z"/>
<path d="M2106 2215 c-3 -8 -1 -15 4 -15 6 0 10 7 10 15 0 8 -2 15 -4 15 -2 0
-6 -7 -10 -15z"/>
<path d="M3664 2403 c-4 -16 -6 -36 -5 -45 3 -27 -18 -58 -40 -58 -30 0 -59
18 -59 38 -1 17 -22 52 -33 52 -11 0 -17 -53 -7 -66 9 -10 6 -19 -14 -39 -34
-34 -52 -32 -75 13 -6 12 -16 22 -20 22 -15 0 -22 -32 -11 -45 11 -13 5 -40
-13 -63 -8 -10 -15 -8 -33 9 -20 19 -24 20 -30 6 -3 -9 -3 -21 1 -27 17 -28
-140 -194 -231 -242 -24 -12 -44 -25 -44 -28 0 -3 48 6 108 21 121 30 337 65
463 75 123 10 477 -40 642 -90 58 -18 61 -8 5 22 -89 47 -244 206 -231 238 3
8 2 21 -1 30 -6 15 -9 15 -30 -5 -18 -17 -25 -19 -33 -9 -18 23 -24 50 -13 63
11 13 4 45 -11 45 -4 0 -14 -10 -20 -22 -23 -45 -41 -47 -75 -13 -20 20 -23
29 -14 39 10 13 4 66 -7 66 -11 0 -32 -35 -33 -52 0 -20 -29 -38 -59 -38 -24
0 -45 34 -38 61 5 19 -13 69 -24 69 -4 0 -10 -12 -15 -27z m-94 -123 c12 -8
12 -11 -3 -28 -23 -25 -21 -68 4 -93 l21 -21 24 23 c18 17 24 19 24 7 0 -8 9
-23 20 -33 19 -17 21 -17 40 0 11 10 20 25 20 33 0 12 6 10 24 -7 l24 -22 21
22 c26 28 27 70 3 93 -18 15 -20 15 -38 -5 -17 -19 -19 -19 -25 -2 -5 15 2 20
38 29 42 11 46 10 73 -17 23 -24 25 -30 14 -40 -19 -16 -18 -83 2 -100 14 -12
20 -9 41 15 19 23 24 38 21 68 -4 43 8 50 22 14 9 -25 47 -52 57 -42 3 3 17
-12 30 -32 14 -20 48 -61 76 -89 28 -29 48 -53 44 -53 -4 0 -74 11 -155 25
-227 40 -343 42 -552 11 -96 -14 -190 -30 -208 -35 -32 -10 -31 -7 36 63 39
41 73 84 77 96 4 13 12 19 21 16 16 -6 64 35 64 54 0 5 4 10 9 10 5 0 7 -17 4
-38 -4 -31 0 -44 20 -67 21 -25 27 -28 41 -16 19 16 21 70 3 95 -12 16 -10 22
12 46 30 32 31 33 51 20z m130 -29 c9 -23 9 -38 0 -65 -6 -20 -15 -36 -20 -36
-5 0 -14 16 -20 36 -9 27 -9 42 0 65 7 16 16 29 20 29 4 0 13 -13 20 -29z
m-70 -1 c0 -11 -2 -20 -3 -20 -2 0 -12 9 -22 20 -18 19 -17 20 3 20 15 0 22
-6 22 -20z m-33 -63 c-3 -21 -4 -20 -15 6 -7 16 -9 33 -6 39 10 16 26 -19 21
-45z m188 26 c-9 -37 -25 -53 -25 -26 0 29 10 53 22 53 6 0 7 -11 3 -27z
m-297 -18 c15 -32 15 -55 2 -55 -11 0 -30 42 -30 66 0 22 16 16 28 -11z m412
11 c0 -24 -19 -66 -30 -66 -13 0 -13 23 2 55 12 27 28 33 28 11z"/>
<path d="M778 2404 c-5 -4 -8 -16 -8 -26 0 -20 -81 -83 -108 -83 -10 -1 -16
-6 -15 -12 1 -6 -6 -18 -16 -27 -23 -21 -91 -34 -91 -17 0 6 -4 11 -10 11 -5
0 -10 -9 -10 -19 0 -11 -12 -29 -26 -40 -28 -22 -64 -28 -64 -11 0 6 -4 10
-10 10 -5 0 -10 -8 -10 -18 0 -35 -66 -74 -76 -47 -9 23 -26 18 -19 -6 5 -15
-1 -29 -21 -50 -28 -29 -54 -38 -54 -19 0 6 -4 10 -10 10 -23 0 -8 -28 21 -40
l31 -13 -24 -13 c-31 -18 -43 -17 -28 1 7 9 11 17 9 20 -3 2 -17 -11 -32 -30
-15 -19 -26 -35 -23 -35 2 0 35 13 74 30 102 43 242 77 394 94 119 14 147 14
258 1 148 -17 288 -51 389 -94 40 -17 75 -31 78 -31 2 0 -8 16 -23 35 -20 27
-24 38 -15 48 14 18 2 30 -15 16 -26 -21 -95 41 -73 67 7 8 6 15 -2 20 -7 4
-15 2 -17 -4 -5 -17 -33 -15 -60 4 -16 11 -21 22 -17 35 7 22 2 24 -23 8 -14
-9 -26 -8 -50 5 -31 16 -36 25 -33 54 1 6 -3 12 -9 12 -5 0 -10 -4 -10 -10 0
-14 -35 -12 -75 4 -25 11 -35 21 -35 37 0 14 -5 19 -14 16 -8 -3 -32 7 -53 22
-45 33 -60 50 -64 74 -2 11 -7 15 -11 11z m101 -122 c22 -17 23 -21 12 -53 -6
-19 -24 -51 -41 -70 l-29 -34 25 49 c13 27 24 54 24 60 0 6 -19 19 -41 28 -33
14 -39 21 -34 37 3 11 1 22 -4 25 -11 7 -25 -12 -26 -34 0 -8 -15 -22 -33 -30
-35 -15 -38 -31 -17 -85 7 -19 7 -19 -9 -4 -10 9 -24 34 -31 55 -13 37 -13 40
8 54 12 8 40 29 62 46 l40 30 35 -28 c19 -15 46 -36 59 -46z m-89 -92 c0 -65
-2 -78 -13 -69 -12 12 -12 44 -1 117 8 55 14 36 14 -48z m-28 23 c-5 -78 -8
-80 -31 -30 -13 27 -21 50 -19 51 1 1 14 7 28 13 14 7 25 12 25 12 0 1 -1 -20
-3 -46z m88 10 c0 -8 -9 -31 -20 -53 -14 -28 -17 -41 -8 -46 14 -9 52 36 75
89 9 20 20 37 23 37 18 0 17 -16 -4 -44 -13 -17 -29 -49 -36 -72 -12 -39 -14
-41 -44 -35 l-31 7 0 76 c0 75 0 75 22 65 13 -6 23 -16 23 -24z m-187 0 c3
-16 20 -44 39 -64 18 -19 30 -31 26 -25 -5 5 -8 15 -8 20 0 17 20 -9 25 -32 3
-17 -1 -22 -16 -22 -10 0 -22 -1 -25 -2 -3 -2 -14 19 -25 46 -10 28 -26 57
-34 65 -10 10 -6 -4 9 -35 29 -57 31 -69 15 -58 -6 3 -20 26 -31 50 -14 34
-16 48 -8 64 15 28 26 25 33 -7z m-48 -33 c4 -16 17 -45 30 -65 14 -19 20 -35
16 -35 -11 0 -111 109 -111 121 0 5 13 9 29 9 24 0 31 -5 36 -30z m324 3 c-14
-37 -42 -83 -51 -83 -10 0 20 71 40 93 21 23 23 22 11 -10z m72 10 c-18 -35
-93 -113 -108 -113 -11 0 -8 8 10 30 14 16 31 45 37 65 10 30 16 35 41 35 25
0 28 -3 20 -17z m-402 -87 c27 -25 27 -36 -3 -36 -17 0 -27 8 -36 29 -6 16
-22 39 -36 52 -18 17 -21 25 -13 36 9 10 17 5 39 -25 15 -20 37 -46 49 -56z
m427 50 c-13 -12 -32 -36 -40 -53 -13 -25 -23 -33 -43 -33 l-27 0 30 33 c17
17 41 47 53 65 19 27 26 31 38 21 12 -11 11 -15 -11 -33z m-496 -74 c13 -4 12
-2 -1 14 -9 10 -22 30 -28 44 -9 19 -3 15 23 -14 31 -34 33 -40 20 -53 -16
-17 -22 -14 -82 41 -33 31 -33 31 -10 37 19 4 27 -2 43 -30 11 -19 27 -37 35
-39z m520 69 c0 -13 -51 -73 -58 -67 -5 5 45 76 54 76 2 0 4 -4 4 -9z m51 -1
c21 0 6 -21 -37 -55 -60 -45 -75 -45 -35 0 17 20 31 43 31 51 0 11 6 14 16 10
9 -3 20 -6 25 -6z m-625 -95 c-14 -7 -21 -6 -24 5 -3 7 -16 25 -29 38 -40 40
-14 45 31 5 39 -35 40 -39 22 -48z m666 74 c6 -17 -63 -81 -79 -75 -11 4 -4
16 24 44 42 43 50 47 55 31z m-716 -51 c21 -22 7 -24 -18 -1 -10 9 -18 11 -18
5 0 -6 10 -18 22 -26 16 -11 18 -16 7 -16 -19 0 -81 45 -73 53 13 12 64 3 80
-15z m718 8 c-3 -8 -12 -17 -20 -20 -18 -7 -18 -1 2 18 19 20 25 20 18 2z m56
4 c0 -5 -11 -17 -25 -26 -14 -9 -23 -19 -21 -22 3 -3 21 7 40 21 28 22 35 24
40 12 3 -9 -3 -24 -14 -35 -18 -18 -25 -19 -63 -8 l-43 11 26 27 c25 27 60 39
60 20z m-834 -63 c-25 -10 -62 24 -52 48 5 15 10 13 39 -12 31 -26 32 -29 13
-36z m-60 1 c-4 6 -2 12 3 12 14 0 14 -13 0 -27 -11 -11 -49 -6 -49 7 0 14 24
18 39 6 11 -8 13 -8 7 2z m974 -2 c8 -11 5 -15 -15 -18 -22 -5 -51 12 -40 23
10 10 44 7 55 -5z m40 -36 c10 -18 8 -18 -21 -8 -23 8 -27 13 -17 19 20 13 26
11 38 -11z"/>
<path d="M2742 2188 c-6 -6 -12 -19 -12 -27 1 -13 2 -13 11 2 14 23 39 22 39
-3 0 -22 -15 -27 -24 -7 -3 6 -5 3 -3 -8 3 -25 26 -26 41 -2 21 33 -24 73 -52
45z"/>
<path d="M3655 1073 c-26 -61 -30 -101 -11 -121 15 -17 14 -20 -9 -42 -28 -26
-24 -44 8 -34 20 6 19 4 -7 -32 -16 -22 -43 -53 -59 -71 l-30 -32 -71 36 c-86
43 -106 59 -106 88 0 32 -24 50 -40 31 -9 -12 -8 -21 6 -45 17 -29 17 -31 -7
-88 -14 -32 -30 -58 -37 -58 -15 0 -142 112 -142 125 0 5 14 7 30 4 44 -9 40
23 -5 42 -30 12 -35 19 -35 48 0 26 -7 39 -27 54 -32 23 -104 54 -110 48 -2
-2 17 -34 42 -72 25 -37 60 -94 76 -126 37 -74 95 -246 105 -311 3 -27 12 -51
19 -53 6 -3 35 7 64 21 28 15 98 38 154 53 189 48 420 28 589 -52 30 -14 59
-26 64 -26 5 0 16 33 23 73 27 148 106 330 192 445 22 28 35 52 29 52 -22 0
-128 -60 -134 -75 -3 -9 -6 -27 -6 -41 0 -18 -9 -27 -35 -38 -45 -19 -49 -50
-5 -44 17 3 30 1 30 -3 0 -8 -131 -129 -140 -129 -8 0 -60 108 -60 124 0 7 7
19 15 26 17 14 20 46 5 55 -16 10 -40 -14 -40 -40 0 -29 -20 -45 -106 -88
l-71 -36 -30 32 c-16 18 -43 49 -58 70 l-28 38 26 -6 c34 -9 34 1 2 35 -23 24
-24 28 -10 40 8 7 15 24 14 39 0 33 -33 114 -47 119 -6 2 -18 -14 -27 -35z
m43 -32 c16 -51 15 -76 -3 -91 -19 -16 -45 3 -45 33 0 27 22 97 30 97 4 0 12
-17 18 -39z m-581 -98 c10 -15 12 -27 5 -39 -8 -14 -14 -10 -39 27 -16 24 -33
50 -38 58 -13 23 55 -21 72 -46z m1167 -3 c-29 -41 -39 -49 -46 -37 -12 23 1
46 41 72 20 12 37 21 39 20 2 -2 -13 -26 -34 -55z m-614 -34 c0 -2 -7 -7 -16
-10 -8 -3 -12 -2 -9 4 6 10 25 14 25 6z m45 -6 c3 -6 -1 -7 -9 -4 -18 7 -21
14 -7 14 6 0 13 -4 16 -10z m-355 -31 c0 -5 -4 -9 -10 -9 -5 0 -10 7 -10 16 0
8 5 12 10 9 6 -3 10 -10 10 -16z m660 6 c0 -8 -4 -15 -10 -15 -5 0 -7 7 -4 15
4 8 8 15 10 15 2 0 4 -7 4 -15z m-850 -15 c8 -5 11 -10 5 -10 -5 0 -17 5 -25
10 -8 5 -10 10 -5 10 6 0 17 -5 25 -10z m535 -16 c15 -23 15 -27 0 -50 -20
-30 -30 -30 -51 1 -15 22 -14 26 3 49 23 32 27 32 48 0z m505 16 c-8 -5 -19
-10 -25 -10 -5 0 -3 5 5 10 8 5 20 10 25 10 6 0 3 -5 -5 -10z m-804 -105 c12
-33 14 -51 7 -67 l-10 -23 -12 22 c-16 32 -26 113 -13 113 6 0 18 -20 28 -45z
m243 18 c11 -23 9 -29 -12 -50 l-23 -24 -25 20 -24 19 29 31 c17 17 33 31 36
31 4 0 12 -12 19 -27z m123 -55 l-22 -22 -27 26 c-26 26 -26 27 -9 54 l18 27
31 -32 32 -31 -23 -22z m213 23 c-8 -60 -31 -86 -40 -48 -7 24 30 115 42 104
3 -3 2 -28 -2 -56z m-456 -8 c2 -1 -22 -25 -52 -53 -31 -28 -66 -67 -79 -87
l-22 -37 -7 28 c-4 15 -19 42 -33 61 l-26 33 25 54 24 53 1 -45 c1 -51 20 -83
47 -78 29 5 39 50 19 88 -9 18 -16 35 -16 36 0 3 101 -42 119 -53z m405 12
c-18 -43 -7 -85 22 -85 26 0 43 31 45 80 l1 45 24 -53 24 -53 -26 -34 c-14
-19 -29 -46 -33 -61 l-7 -28 -22 37 c-13 20 -48 59 -79 87 -30 28 -54 52 -52
53 19 11 115 54 117 52 1 -1 -5 -19 -14 -40z m-662 -98 c-9 -18 -19 -50 -22
-72 -7 -43 -11 -38 -29 40 -7 28 -23 75 -35 107 l-23 56 62 -50 63 -50 -16
-31z m907 88 c-11 -25 -28 -77 -39 -117 -10 -40 -20 -66 -23 -58 -2 8 -12 39
-22 69 l-18 53 34 27 c18 14 45 36 59 48 14 12 26 23 27 23 1 0 -7 -20 -18
-45z m-465 -26 l26 -21 -25 -30 c-14 -16 -25 -36 -25 -44 0 -26 -15 -13 -38
34 l-24 47 22 17 c28 23 32 22 64 -3z m-136 -5 l23 -16 -35 -38 c-18 -21 -37
-47 -41 -59 -6 -19 -19 -25 -109 -47 -27 -6 -28 -6 -16 17 12 24 140 159 150
159 3 0 16 -7 28 -16z m316 -64 c82 -86 92 -106 49 -96 -92 23 -101 27 -112
54 -6 15 -25 42 -41 59 l-30 32 22 15 c12 9 25 16 29 16 3 0 41 -36 83 -80z
m-255 -4 c12 -18 21 -38 21 -44 0 -6 -27 -12 -60 -14 -33 -1 -60 0 -60 3 0 12
60 89 69 89 5 0 19 -15 30 -34z m151 -8 c16 -22 30 -44 30 -47 0 -3 -27 -4
-60 -3 -33 2 -60 8 -60 14 0 16 40 78 51 78 5 0 22 -19 39 -42z m-467 7 c10
-14 24 -42 31 -63 l14 -39 -54 -25 -54 -25 0 38 c0 38 28 139 39 139 3 0 14
-12 24 -25z m760 -26 c10 -28 17 -68 17 -89 l0 -37 -51 25 c-46 23 -50 28 -45
53 5 29 46 99 57 99 3 0 13 -23 22 -51z"/>
<path d="M2188 996 l-58 -63 -122 -19 -122 -19 -17 -49 c-24 -67 -65 -125
-101 -144 -17 -10 -42 -26 -56 -38 -23 -19 -24 -22 -11 -50 23 -47 58 -57 226
-62 170 -5 161 -9 143 63 -6 27 -8 28 -14 10 -15 -40 -24 -50 -47 -54 -42 -6
-152 19 -214 49 -44 21 -63 26 -72 18 -8 -6 -16 -8 -20 -5 -12 12 183 89 301
118 120 30 322 34 448 8 107 -21 212 -56 300 -99 70 -35 68 -14 -3 29 -54 34
-91 84 -118 157 l-17 49 -121 19 -122 18 -61 64 c-34 35 -62 64 -63 63 -1 0
-28 -29 -59 -63z m90 -46 c24 -31 21 -52 -13 -80 -13 -11 -19 -9 -40 10 -14
13 -25 28 -25 33 0 10 42 66 50 66 3 0 15 -13 28 -29z m-103 -20 c-12 -20 46
-100 73 -100 17 0 71 54 73 72 1 7 0 20 -1 28 -1 11 5 9 22 -7 18 -17 50 -27
138 -41 79 -12 115 -22 118 -33 2 -7 15 -36 28 -63 21 -42 22 -47 7 -41 -10 4
-61 19 -113 33 -85 23 -113 26 -270 26 -158 0 -184 -3 -270 -26 -52 -14 -103
-29 -112 -33 -15 -6 -13 4 11 56 l29 63 111 18 c80 13 118 23 133 38 24 22 33
26 23 10z"/>
<path d="M811 1022 c-6 -12 -9 -33 -5 -47 9 -38 -42 -85 -93 -85 -45 0 -83 23
-83 49 0 16 -18 31 -36 31 -9 0 -3 -37 7 -47 22 -22 5 -57 -35 -77 -38 -19
-40 -19 -73 0 -20 10 -39 29 -44 41 -5 13 -13 23 -18 23 -16 0 -19 -24 -4 -41
10 -12 11 -23 4 -43 -9 -21 -17 -26 -43 -26 -39 1 -71 22 -63 42 8 21 -22 45
-38 29 -9 -9 -9 -16 1 -31 16 -27 15 -55 -4 -74 -14 -14 -18 -14 -44 -1 -21
11 -27 20 -23 35 4 14 0 20 -12 20 -22 0 -15 -21 42 -133 52 -101 63 -109 179
-131 240 -46 687 -38 862 16 l63 19 55 111 c30 61 52 113 49 116 -10 10 -34
-8 -29 -22 3 -9 -5 -21 -21 -32 -22 -15 -28 -15 -39 -3 -22 23 -28 66 -11 73
17 6 19 15 7 34 -12 18 -44 4 -40 -18 5 -27 -21 -50 -58 -50 -27 0 -37 5 -46
25 -9 19 -9 28 0 37 13 13 16 48 5 48 -13 0 -27 -14 -39 -35 -6 -11 -22 -26
-35 -34 -21 -11 -29 -11 -62 2 -44 19 -67 62 -42 81 23 17 9 49 -16 36 -10 -6
-16 -16 -13 -24 7 -19 -42 -48 -83 -48 -51 0 -118 67 -95 95 7 8 6 20 -3 36
l-12 24 -12 -21z m124 -166 c24 0 51 6 59 13 12 10 17 8 26 -9 15 -28 69 -60
101 -60 14 0 34 6 44 14 18 13 21 11 36 -14 20 -32 60 -45 89 -30 17 9 26 5
56 -24 35 -34 36 -36 21 -60 l-16 -24 -78 33 c-188 82 -426 115 -610 85 -85
-13 -231 -57 -316 -95 l-54 -24 -13 24 c-11 21 -10 28 16 59 16 19 35 33 42
30 56 -18 63 -16 95 18 31 33 34 34 55 20 39 -25 142 13 142 53 0 11 7 11 39
-2 48 -19 81 -12 124 27 l32 29 33 -32 c28 -27 41 -32 77 -31z m70 -107 c80
-14 259 -73 315 -105 53 -30 42 -27 -64 16 -296 120 -587 118 -879 -6 -44 -18
-82 -32 -85 -30 -11 11 159 78 268 106 153 39 290 45 445 19z m-20 -49 c128
-12 206 -30 288 -67 68 -31 65 -34 -45 -57 -127 -26 -396 -39 -575 -26 -158
10 -310 34 -327 51 -6 5 14 19 49 34 142 63 369 87 610 65z"/>
<path d="M2701 620 c-86 -44 -213 -64 -239 -38 -7 7 -12 20 -12 30 0 25 -16
22 -24 -4 -15 -58 -15 -58 106 -58 137 0 230 15 254 41 16 18 16 20 -1 39 -21
24 -16 24 -84 -10z"/>
</g>
</svg>
