<?xml version="1.0" standalone="no"?>
<!DOCTYPE svg PUBLIC "-//W3C//DTD SVG 20010904//EN"
 "http://www.w3.org/TR/2001/REC-SVG-20010904/DTD/svg10.dtd">
<svg version="1.0" xmlns="http://www.w3.org/2000/svg"
 width="300.000000pt" height="300.000000pt" viewBox="0 0 300.000000 300.000000"
 preserveAspectRatio="xMidYMid meet">
<metadata>
Created by potrace 1.10, written by Peter Selinger 2001-2011
</metadata>
<g transform="translate(0.000000,300.000000) scale(0.100000,-0.100000)"
fill="#000000" stroke="none">
<path d="M494 2618 c-22 -22 -81 -71 -131 -110 -51 -39 -93 -77 -93 -84 0 -8
-5 -14 -11 -14 -5 0 -37 -27 -71 -60 -63 -63 -66 -76 -8 -37 76 52 262 107
359 107 90 0 269 -52 346 -101 26 -16 49 -28 52 -26 6 6 -93 99 -118 111 -10
5 -19 15 -19 22 0 7 -28 34 -62 61 -35 26 -95 76 -134 110 l-71 61 -39 -40z
m76 -78 c0 -8 9 -21 20 -28 12 -7 18 -17 15 -22 -4 -6 -10 -8 -15 -5 -15 9
-38 -6 -44 -28 -6 -22 -6 -22 -19 3 -8 16 -21 25 -35 24 -24 -1 -30 20 -9 33
6 4 21 25 31 46 l20 38 18 -23 c10 -13 18 -30 18 -38z m-125 -61 c9 -27 7 -28
-51 -35 l-49 -6 35 31 c41 36 56 38 65 10z m242 -5 c45 -34 42 -43 -14 -32
-58 13 -57 11 -43 37 14 27 16 26 57 -5z"/>
<path d="M1475 2634 c-16 -25 -16 -28 -1 -36 22 -12 20 -21 -10 -57 -18 -22
-35 -31 -55 -31 -22 0 -29 -5 -29 -19 0 -27 -26 -44 -58 -38 -22 5 -30 1 -37
-16 -6 -12 -36 -36 -68 -53 -72 -38 -85 -50 -69 -66 14 -14 192 -29 247 -21
l39 6 -54 19 c-65 23 -68 23 -145 13 -33 -4 -57 -5 -54 -1 11 11 219 36 305
36 96 0 266 -16 309 -30 22 -7 15 -8 -30 -3 -77 8 -80 8 -145 -15 l-54 -19 41
-6 c58 -10 220 3 241 19 15 11 15 14 2 28 -8 8 -40 28 -69 43 -46 24 -60 37
-78 71 -1 2 -10 -1 -21 -7 -24 -13 -62 11 -62 40 0 14 -7 19 -29 19 -20 0 -37
9 -55 31 -30 36 -32 45 -10 57 15 8 15 11 -1 36 -10 14 -21 26 -25 26 -4 0
-15 -12 -25 -26z m69 -149 c23 -14 53 -36 66 -50 l23 -25 -134 0 -134 0 25 25
c29 28 91 73 103 74 5 1 28 -10 51 -24z"/>
<path d="M2426 2589 c-14 -23 -26 -47 -26 -54 0 -8 -7 -11 -20 -8 -22 6 -26
-7 -8 -25 26 -26 -37 -65 -122 -76 -30 -4 -75 -16 -101 -27 -45 -20 -98 -64
-88 -74 3 -2 29 4 57 15 168 64 506 64 673 0 65 -24 62 -24 49 0 -23 42 -105
76 -231 95 -20 3 -49 17 -65 31 -24 23 -26 27 -11 36 27 14 20 31 -9 24 -17
-5 -23 -3 -19 4 4 6 -7 30 -23 55 l-29 44 -27 -40z m54 -60 c0 -9 -7 -22 -16
-30 -13 -10 -17 -10 -25 2 -13 20 -11 53 3 67 10 10 15 9 25 -5 7 -9 13 -24
13 -34z m18 -72 c26 -17 10 -27 -43 -27 -39 0 -55 4 -55 13 0 8 3 16 6 19 8 8
76 4 92 -5z"/>
<path d="M1447 1753 c-11 -10 -8 -41 4 -48 6 -4 13 -4 17 0 3 3 0 10 -8 15
-11 7 -12 12 -4 20 8 8 15 6 24 -5 21 -25 1 -70 -30 -70 -22 0 -25 4 -22 35 2
33 2 34 -13 16 -8 -11 -15 -23 -15 -28 0 -4 -6 -8 -14 -8 -8 0 -22 -10 -31
-22 -12 -16 -19 -19 -22 -10 -3 6 -9 12 -14 12 -12 0 -12 -37 1 -45 16 -10 12
-36 -7 -50 -14 -10 -20 -9 -33 7 -15 19 -18 20 -47 4 -28 -14 -32 -14 -37 0
-3 8 -10 13 -16 9 -6 -4 -6 -15 0 -31 6 -14 10 -46 10 -70 0 -42 -1 -44 -16
-29 -15 14 -19 15 -32 2 -18 -19 -6 -40 19 -34 15 4 19 0 19 -23 0 -30 -23
-56 -40 -45 -5 3 -10 14 -9 23 0 11 2 12 6 4 2 -6 9 -10 14 -6 13 7 1 24 -17
24 -8 0 -14 -9 -14 -20 0 -10 -5 -29 -10 -42 -19 -42 1 -99 45 -130 44 -29 85
-44 85 -31 0 5 -17 15 -37 22 -20 8 -47 24 -60 37 -24 24 -24 25 -6 54 98 167
628 166 727 0 17 -30 17 -32 1 -50 -9 -10 -37 -27 -61 -37 -24 -10 -44 -21
-44 -25 0 -16 30 -7 76 25 39 26 50 39 57 72 5 25 4 49 -3 63 -6 13 -8 27 -6
31 9 14 -12 34 -29 28 -9 -4 -13 -12 -9 -18 4 -8 9 -7 15 2 6 10 9 8 9 -8 0
-13 -6 -23 -13 -23 -21 0 -37 22 -37 51 0 22 4 26 19 22 25 -6 37 15 19 34
-13 13 -17 12 -32 -2 -15 -15 -16 -13 -16 30 0 25 5 56 11 67 8 14 8 23 0 31
-7 7 -12 5 -17 -6 -5 -15 -8 -15 -37 -1 -29 16 -32 15 -47 -4 -12 -15 -21 -17
-33 -10 -19 10 -23 43 -7 53 13 8 13 45 1 45 -5 0 -11 -6 -14 -12 -3 -9 -10
-6 -22 10 -9 12 -23 22 -31 22 -8 0 -14 4 -14 8 0 5 -7 17 -15 28 -15 18 -15
17 -13 -16 3 -30 0 -35 -19 -38 -29 -4 -53 40 -36 66 11 19 25 20 32 1 2 -7
-1 -9 -8 -5 -6 4 -11 0 -11 -9 0 -24 24 -12 28 13 5 30 -26 41 -45 16 -13 -18
-15 -18 -24 -1 -10 17 -30 22 -42 10z m-22 -99 c20 -20 16 -48 -8 -52 -20 -4
-24 24 -4 31 7 3 5 6 -5 6 -22 1 -24 -32 -4 -49 8 -6 13 -17 10 -25 -9 -22
-55 6 -48 29 5 14 2 18 -9 13 -19 -7 -13 18 11 46 19 21 36 22 57 1z m214 -10
c25 -32 27 -46 5 -37 -13 5 -15 2 -10 -13 7 -24 -39 -51 -48 -27 -3 7 1 16 9
19 22 9 20 54 -2 53 -11 0 -13 -3 -5 -6 17 -7 15 -33 -2 -33 -24 0 -29 19 -12
45 21 32 39 32 65 -1z m-129 -19 c0 -19 -4 -35 -10 -35 -5 0 -10 16 -10 35 0
19 5 35 10 35 6 0 10 -16 10 -35z m-49 -51 c-26 -33 -26 -45 0 -78 24 -30 19
-33 -16 -10 -34 22 -33 63 2 105 32 37 44 22 14 -17z m119 -43 c0 -20 -8 -34
-26 -46 -32 -21 -41 -15 -14 10 25 23 25 46 0 78 -31 40 -23 56 10 19 19 -20
30 -43 30 -61z m-99 29 c-21 -12 -6 -37 21 -35 14 1 24 9 26 21 3 16 1 16 -7
4 -9 -12 -11 -11 -11 8 0 30 18 28 31 -4 8 -22 5 -33 -13 -60 -13 -19 -25 -34
-28 -34 -3 0 -16 16 -29 35 -23 33 -23 36 -6 61 9 14 19 23 23 19 4 -3 0 -10
-7 -15z m-203 -24 c3 -20 0 -27 -10 -24 -7 3 -13 14 -12 26 0 12 -3 19 -8 16
-4 -3 -8 -13 -8 -23 0 -10 -7 -24 -16 -31 -23 -20 -14 -64 14 -68 13 -2 25 3
28 13 8 20 -10 42 -20 26 -4 -6 -2 -11 5 -11 10 0 10 -3 1 -12 -19 -19 -40 7
-26 30 18 27 42 26 55 -2 7 -14 20 -26 30 -26 27 0 32 -17 7 -23 -12 -4 -25
-1 -29 5 -4 5 -8 6 -10 1 -4 -8 -71 -53 -80 -53 -3 0 -2 37 2 81 4 64 10 85
25 96 27 20 49 12 52 -21z m498 20 c15 -12 20 -30 24 -95 3 -45 3 -81 1 -81
-2 0 -23 13 -47 30 -24 16 -44 26 -44 21 0 -5 -11 -6 -25 -3 -27 5 -24 22 4
22 10 0 23 12 30 26 13 28 37 29 55 2 14 -23 -7 -49 -26 -30 -9 9 -9 12 1 12
7 0 9 5 5 11 -10 16 -28 -6 -20 -26 3 -10 15 -15 28 -13 28 4 37 48 14 68 -9
7 -16 21 -16 31 0 10 -4 20 -8 23 -5 3 -8 -4 -8 -16 1 -12 -5 -23 -11 -25 -8
-3 -13 5 -13 20 0 39 21 48 56 23z m-378 -27 c2 -17 -3 -29 -13 -33 -21 -8
-35 1 -35 20 0 8 5 12 10 9 6 -3 10 -1 10 4 0 15 -27 14 -33 -1 -6 -17 11 -48
25 -48 6 0 17 -8 24 -17 13 -17 14 -17 7 1 -4 13 -3 17 4 13 6 -4 14 -1 16 5
4 9 6 7 6 -3 2 -29 -22 -39 -62 -28 -35 9 -42 21 -38 57 1 6 -3 12 -9 12 -5 0
-11 -10 -11 -22 -2 -23 -2 -23 -6 0 -7 36 24 64 66 60 30 -3 36 -7 39 -29z
m294 14 c10 -9 17 -28 17 -42 -2 -24 -2 -24 -6 -3 -6 32 -23 27 -23 -8 0 -25
-5 -30 -37 -39 -40 -11 -64 -1 -62 28 0 10 2 12 6 3 2 -6 10 -9 16 -5 7 4 8 0
4 -13 -7 -18 -6 -18 7 -1 7 9 18 17 23 17 18 0 34 27 27 44 -7 18 -34 22 -34
5 0 -5 5 -7 10 -4 6 3 10 -1 10 -9 0 -19 -14 -28 -34 -20 -16 6 -22 45 -9 57
12 13 67 7 85 -10z"/>
<path d="M2447 1613 c-4 -3 -7 -19 -7 -33 0 -55 -51 -65 -70 -15 -12 31 -34
23 -26 -8 3 -12 0 -27 -6 -34 -16 -20 -45 -15 -51 8 -8 31 -27 13 -21 -20 7
-31 -11 -50 -29 -32 -17 17 -29 13 -22 -9 8 -25 -78 -119 -143 -157 -24 -14
-41 -27 -39 -29 2 -2 26 3 53 11 81 25 283 55 371 55 88 0 289 -31 366 -56 61
-20 71 -12 18 15 -57 30 -151 127 -151 157 0 25 -15 33 -22 12 -8 -24 -28 4
-28 40 l0 37 -19 -24 c-26 -34 -56 -25 -56 18 0 19 -6 36 -12 38 -12 4 -17 -8
-14 -29 1 -12 -39 -30 -55 -24 -8 3 -14 18 -14 33 0 32 -13 57 -23 46z m23
-131 c0 -15 -4 -34 -10 -42 -14 -23 -33 35 -19 61 13 25 29 15 29 -19z m-133
-45 c-6 -19 -22 -6 -25 20 -2 27 -2 27 13 8 8 -10 14 -23 12 -28z m249 -5
c-15 -15 -16 -15 -16 4 0 28 24 52 28 28 2 -9 -3 -24 -12 -32z m-289 -14 c13
-12 23 -25 23 -29 0 -8 -99 -24 -106 -16 -5 5 44 67 54 67 3 0 16 -10 29 -22z
m384 -19 c6 -11 8 -23 6 -26 -7 -6 -97 8 -97 15 0 3 10 16 21 28 24 26 50 20
70 -17z m-252 17 c22 -14 -1 -26 -51 -26 -49 0 -51 1 -34 19 17 18 60 22 85 7z
m131 -6 c10 -19 7 -20 -34 -20 -70 0 -76 32 -7 37 22 2 34 -4 41 -17z"/>
<path d="M510 1587 c-8 -16 -28 -36 -44 -45 -16 -10 -38 -25 -49 -36 -14 -13
-28 -16 -49 -12 -16 3 -27 2 -24 -3 10 -15 -31 -43 -53 -36 -15 4 -21 2 -21
-8 0 -8 -7 -20 -15 -27 -12 -10 -18 -10 -30 0 -12 10 -15 9 -15 -5 0 -10 -7
-27 -17 -37 -15 -17 -15 -18 0 -18 10 0 17 -5 17 -10 0 -6 -13 -4 -30 5 -36
19 -41 19 -33 0 3 -9 -3 -25 -13 -37 -19 -21 -19 -21 1 -13 154 61 315 90 441
80 95 -7 219 -35 287 -64 61 -26 61 -26 41 4 -8 13 -12 30 -8 36 5 9 2 10 -11
5 -24 -9 -57 21 -49 46 3 10 1 18 -4 18 -6 0 -12 -5 -14 -11 -5 -16 -48 6 -48
24 0 7 -12 13 -27 12 -19 0 -31 7 -38 22 -7 17 -15 20 -36 16 -18 -3 -33 1
-46 14 -10 10 -35 29 -55 41 -21 13 -38 33 -40 45 -3 21 -4 20 -18 -6z m51
-49 c30 -24 38 -36 33 -52 -6 -20 -6 -20 8 -2 14 18 15 18 22 1 3 -10 4 -20 1
-23 -3 -3 -5 1 -5 9 -1 10 -5 8 -15 -5 -11 -14 -15 -16 -15 -5 0 12 -2 12 -10
-1 -8 -11 -9 -9 -5 11 5 20 1 27 -19 37 -14 6 -26 18 -26 27 0 8 -4 15 -10 15
-5 0 -10 -9 -10 -20 0 -13 -9 -22 -25 -26 -20 -5 -24 -11 -20 -33 5 -25 5 -25
-9 4 -14 29 -14 31 22 62 20 18 38 32 40 33 2 0 21 -14 43 -32z m-114 -69 c7
-17 16 -28 22 -25 5 4 13 1 17 -5 5 -8 3 -9 -7 -4 -8 5 -5 -1 5 -13 19 -22 19
-22 0 -22 -14 0 -24 11 -33 36 -7 19 -15 33 -18 31 -2 -3 1 -15 7 -28 11 -19
10 -25 -6 -36 -10 -7 -31 -12 -46 -9 -16 2 -28 0 -28 -6 0 -5 -13 0 -30 12
-30 22 -39 40 -19 40 6 0 18 -8 27 -18 10 -9 14 -13 10 -8 -18 22 -6 29 12 7
11 -13 20 -19 20 -14 0 6 -9 18 -20 28 -11 10 -17 22 -14 27 3 5 22 -8 41 -29
l34 -38 -25 36 c-30 41 -32 49 -11 49 8 0 21 -16 29 -35 8 -19 18 -35 21 -35
3 0 2 8 -4 18 -10 19 -12 72 -2 72 4 0 12 -14 18 -31z m58 11 c-4 -11 -2 -20
4 -20 6 0 12 10 12 23 1 12 5 4 9 -18 l7 -40 2 37 c1 27 5 36 14 32 8 -3 13
-15 13 -27 -1 -13 4 -21 12 -19 13 2 15 -8 6 -32 -3 -9 -16 -16 -27 -16 -20 0
-20 1 -2 13 10 8 15 19 11 26 -5 8 -13 4 -26 -11 -18 -22 -19 -22 -20 -3 0 15
-3 16 -9 7 -6 -10 -11 -5 -20 17 -13 30 -9 51 10 51 6 0 7 -9 4 -20z m165 -9
c0 -5 -12 -24 -26 -43 -23 -29 -22 -28 11 5 44 46 54 43 23 -6 -18 -28 -29
-36 -50 -34 -16 0 -29 6 -29 12 -2 20 3 40 13 50 7 7 8 3 3 -12 -10 -34 4 -28
16 7 10 27 39 43 39 21z m89 -40 c11 -7 9 -13 -8 -30 -31 -31 -49 -26 -20 6
l24 26 -38 -28 -38 -28 18 31 c18 32 37 39 62 23z m-436 -54 c-5 -8 -8 -7 -11
1 -2 7 -7 10 -11 8 -14 -9 -32 11 -25 28 6 16 9 15 30 -5 13 -12 20 -27 17
-32z m-56 -9 c-25 -16 -65 1 -52 22 5 8 13 6 28 -7 15 -12 18 -13 9 -2 -6 9
-9 19 -5 22 3 4 12 -1 19 -11 9 -13 9 -19 1 -24z m533 34 c0 -4 -6 -14 -12
-21 -11 -11 -9 -11 10 -1 28 14 40 6 22 -14 -11 -14 -15 -14 -41 0 -16 8 -27
19 -24 25 4 5 11 7 16 4 5 -4 9 -1 9 4 0 6 5 11 10 11 6 0 10 -4 10 -8z"/>
<path d="M2430 699 c-11 -31 -11 -45 -2 -59 9 -14 8 -21 -3 -30 -20 -16 -19
-34 0 -26 22 8 5 -21 -33 -57 l-29 -28 -57 28 c-42 21 -56 32 -56 49 0 22 -25
40 -35 24 -3 -5 0 -20 6 -34 9 -19 9 -32 -1 -56 -7 -17 -16 -33 -21 -36 -11
-6 -85 52 -93 73 -5 11 -1 13 15 8 28 -9 21 16 -9 31 -12 6 -19 13 -16 17 13
13 -9 45 -47 66 -22 13 -43 21 -46 18 -3 -3 9 -26 27 -52 45 -66 87 -160 106
-240 9 -38 18 -76 20 -82 2 -9 18 -5 55 12 29 13 95 31 147 41 89 16 102 16
187 1 75 -14 139 -34 197 -65 3 -2 12 23 18 55 18 88 66 204 111 268 22 31 38
60 35 62 -3 3 -24 -6 -48 -19 -31 -17 -44 -30 -46 -49 -2 -16 -12 -31 -28 -37
-34 -16 -31 -36 4 -28 24 6 23 2 -21 -39 -27 -25 -52 -45 -55 -45 -4 0 -15 19
-24 41 -14 32 -15 44 -5 60 9 14 9 21 0 30 -12 12 -14 9 -29 -38 -2 -7 -28
-25 -58 -40 l-55 -27 -37 40 c-19 21 -33 32 -30 22 2 -9 -1 -24 -8 -33 -11
-16 -13 -16 -26 0 -18 21 -3 47 30 52 33 5 38 13 17 28 -15 11 -16 16 -6 33
10 16 10 27 -2 58 -19 51 -33 52 -49 3z m37 -53 c-4 -9 -11 -16 -16 -16 -16 0
-20 29 -9 62 l12 33 9 -32 c5 -18 7 -39 4 -47z m-404 -1 c10 -7 17 -23 15 -34
-3 -18 -6 -16 -26 14 -23 37 -19 44 11 20z m792 -19 c-18 -26 -35 -34 -35 -16
0 13 40 53 47 47 2 -3 -3 -17 -12 -31z m-580 -164 c-5 -14 -7 -14 -15 -2 -6 8
-10 29 -9 45 l0 30 15 -28 c9 -16 13 -36 9 -45z m155 24 c-14 -18 -20 -19 -40
-6 -12 7 -11 12 5 30 16 18 20 19 33 6 13 -12 13 -18 2 -30z m78 23 c10 -15
11 -24 3 -32 -15 -15 -44 14 -35 36 8 22 16 21 32 -4z m140 -41 l-13 -23 -3
22 c-2 12 3 32 10 45 l13 23 3 -22 c2 -12 -3 -32 -10 -45z m-305 20 c1 -3 -18
-27 -44 -54 l-45 -49 -23 34 c-21 33 -22 37 -8 65 15 30 16 30 17 6 1 -36 15
-54 35 -46 14 5 16 14 12 40 l-5 34 29 -12 c17 -7 31 -15 32 -18z m277 7 c-11
-29 -4 -55 15 -55 17 0 32 20 37 49 3 23 3 23 14 -5 8 -24 6 -36 -10 -65 l-21
-36 -48 53 -48 53 28 15 c39 21 44 20 33 -9z m-433 -41 c5 -1 -22 -64 -27 -64
-5 0 -21 47 -38 110 -2 8 11 2 29 -15 19 -16 35 -30 36 -31z m579 -17 l-22
-67 -11 42 c-11 42 -11 44 20 69 18 15 33 26 34 26 0 -1 -9 -32 -21 -70z
m-294 -7 l-16 -28 -19 30 c-17 29 -17 31 0 43 15 11 21 11 35 -2 15 -13 15
-17 0 -43z m-86 39 c3 -6 -3 -24 -15 -40 -11 -15 -21 -32 -21 -37 0 -10 -81
-34 -88 -27 -6 5 99 115 109 115 4 0 11 -5 15 -11z m208 -39 c25 -27 46 -53
46 -59 0 -5 -16 -5 -40 1 -22 6 -40 14 -40 18 0 5 -11 22 -25 38 -18 22 -21
32 -13 40 18 18 22 16 72 -38z m-154 -31 c0 -4 -18 -9 -40 -11 -22 -2 -40 -2
-40 0 0 1 10 16 22 33 l22 30 18 -23 c10 -13 18 -26 18 -29z m-200 -35 c0 -11
-42 -34 -62 -34 -12 0 -3 63 14 94 10 18 12 17 29 -15 10 -19 18 -39 19 -45z
m282 59 c27 -24 22 -33 -17 -33 -38 0 -40 2 -25 31 13 23 18 24 42 2z m208
-60 c0 -37 0 -37 -35 -21 -29 13 -31 27 -9 70 l16 32 14 -25 c7 -13 13 -39 14
-56z"/>
<path d="M1455 660 c-37 -37 -46 -41 -123 -51 -57 -9 -82 -16 -82 -26 0 -31
-43 -95 -80 -119 -41 -27 -50 -53 -27 -72 15 -13 125 -32 182 -32 56 0 70 11
58 46 l-10 29 -7 -29 c-7 -28 -8 -29 -63 -22 -31 4 -77 16 -102 27 l-46 21 52
24 c100 47 206 67 323 61 103 -5 226 -35 290 -72 l25 -14 -46 -20 c-25 -11
-70 -23 -100 -27 -51 -6 -56 -5 -65 17 l-11 24 -8 -24 c-11 -36 10 -43 109
-37 147 10 184 45 104 102 -42 29 -57 51 -77 105 -9 24 -17 27 -88 38 -70 10
-82 15 -118 51 -23 22 -43 40 -46 40 -2 0 -22 -18 -44 -40z m65 -30 c11 -21
-2 -60 -20 -60 -5 0 -14 9 -20 20 -11 21 2 60 20 60 5 0 14 -9 20 -20z m-80
-58 c0 -8 -108 -32 -141 -32 -31 0 11 22 57 29 68 12 84 12 84 3z m249 -14
c13 -5 21 -11 18 -14 -8 -8 -147 19 -147 29 0 9 93 -1 129 -15z"/>
<path d="M539 683 c0 -5 -2 -21 -3 -37 -4 -63 -94 -78 -117 -20 -4 13 -13 24
-19 24 -13 0 -13 -27 0 -35 19 -12 10 -35 -20 -50 -38 -20 -37 -20 -72 17
l-30 32 7 -37 c6 -29 4 -38 -10 -43 -23 -9 -66 12 -59 29 3 8 -1 17 -10 20
-16 6 -30 -19 -16 -28 13 -8 13 -42 0 -50 -13 -8 -50 13 -47 27 1 6 -4 13 -12
16 -8 2 -12 1 -10 -4 40 -85 66 -123 79 -118 8 4 60 23 115 42 177 62 372 54
528 -23 29 -14 43 -22 32 -19 -11 4 -51 18 -89 31 -102 36 -219 49 -319 35
-86 -11 -233 -54 -264 -78 -16 -12 -15 -14 19 -28 110 -46 544 -47 655 -1 19
8 32 19 29 24 -4 5 -2 11 3 13 10 3 61 102 61 118 0 18 -15 11 -25 -12 -6 -13
-17 -23 -25 -23 -11 0 -15 11 -13 43 1 30 -2 42 -10 39 -7 -2 -13 -13 -15 -25
-2 -13 -13 -24 -27 -28 -36 -9 -48 3 -40 42 5 28 3 33 -10 28 -8 -3 -15 -12
-15 -18 0 -19 -42 -34 -68 -25 -28 11 -38 35 -22 55 10 11 10 18 2 26 -8 8
-13 6 -19 -8 -24 -64 -114 -54 -119 12 -1 16 -3 32 -3 37 -1 4 -5 7 -11 7 -5
0 -10 -3 -11 -7z m41 -123 l25 -20 -47 0 c-49 0 -61 11 -30 29 23 14 23 14 52
-9z m222 -119 c37 -12 70 -26 73 -31 18 -29 -271 -55 -455 -40 -117 9 -195 22
-206 33 -8 8 101 46 159 57 29 5 122 7 207 6 124 -3 168 -8 222 -25z"/>
</g>
</svg>
